<svg width="260" height="57" viewBox="0 0 260 57" fill="none" xmlns="http://www.w3.org/2000/svg">
<path d="M24.7915 6.50084C24.3711 6.49953 23.9495 6.49976 23.5267 6.50153C21.4915 6.51028 19.4238 6.55975 17.3385 6.63135L17.9418 9.07955C20.1135 8.85237 22.4943 8.68321 24.8748 8.59862C26.1646 8.55279 27.4464 8.5286 28.6898 8.5347C32.4201 8.5527 35.8046 8.84253 38.0189 9.63641L38.9658 9.9761L38.5431 10.8303C35.4542 17.074 34.7398 23.0976 35.2238 29.0078C35.4628 21.9937 38.6137 15.7552 42.7502 7.75764C37.1215 6.89217 31.0972 6.52021 24.7915 6.50074V6.50084ZM27.7713 10.3158C26.8423 10.3165 25.8952 10.3339 24.9483 10.3675C20.519 10.5249 16.105 11.0058 13.2283 11.5572C16.4418 17.0725 19.0413 22.6005 20.72 27.9895C20.9288 27.9831 21.1378 27.9846 21.3464 27.994C21.7735 28.0133 22.1959 28.0669 22.6086 28.1503C20.9 23.0955 18.9538 18.4334 16.5346 13.7785L15.9879 12.7267L17.23 12.5233C20.3503 12.0121 23.5709 11.8142 26.6361 11.8134C26.8405 11.8134 27.0442 11.8142 27.247 11.8157C29.1947 11.8315 31.0718 11.9247 32.8109 12.065L33.9859 12.1599L33.6432 13.2041C31.6555 19.2588 31.2662 25.7611 32.39 31.9477C32.4089 31.9636 32.4275 31.9797 32.4459 31.9959C32.8512 31.8645 33.2303 31.7305 33.5838 31.5874C32.7064 24.9592 33.0951 18.1211 36.3716 11.0126C34.5432 10.5815 31.756 10.3562 28.6933 10.3208C28.386 10.3173 28.0786 10.3156 27.7713 10.3158ZM43.1775 11.0421C39.8872 17.4895 37.5502 22.6562 37.1671 28.2338C39.297 21.6639 43.4137 15.7745 48.1048 11.9907C46.4765 11.6148 44.8328 11.2984 43.1775 11.0421ZM11.826 12.8644C9.83198 13.2448 7.8841 13.7277 6 14.3949C6.91686 15.1306 8.57436 16.4991 10.5854 18.318C11.5109 17.4365 12.4549 16.5656 13.4395 15.7737C12.918 14.7962 12.3801 13.8264 11.826 12.8644ZM26.9217 13.6003C25.474 13.5938 23.9921 13.6321 22.5049 13.7274C22.3489 15.0731 21.4888 16.3319 20.4615 17.5699C22.1016 21.1566 23.5182 24.8166 24.7934 28.7025C26.7465 29.2355 28.6788 29.8657 30.244 30.6207C29.6626 26.445 29.7421 22.1663 30.497 17.982C29.1274 16.673 28.414 15.2194 28.3568 13.6212C27.8785 13.6094 27.4001 13.6024 26.9217 13.6003ZM46.2685 16.2542C43.6399 19.1359 41.3237 22.745 39.7454 26.6706C42.6433 22.8564 46.2068 19.8813 50 17.7798C48.7642 17.2546 47.5202 16.746 46.2685 16.2542ZM14.3027 17.4304C12.7515 18.7274 11.2188 20.2842 9.62259 21.7673C13.0546 23.6547 15.9778 25.8899 18.3624 28.4216C18.5105 28.3699 18.66 28.3233 18.8104 28.281C17.6946 24.7309 16.1654 21.0982 14.3027 17.4304ZM39.1095 29.6996C37.3666 31.6458 35.7258 32.6732 33.4665 33.493C33.7207 34.3997 33.3432 35.4408 32.4744 36.237C31.9634 36.7052 31.3211 37.239 30.3822 37.5859C30.5177 37.6601 30.6559 37.7299 30.7967 37.7951C32.1109 38.4019 34.4326 38.2062 36.5895 37.2985C38.7398 36.3937 40.6607 34.8307 41.3726 33.2474C41.7294 32.3573 41.4747 31.8931 40.85 31.2123C40.4053 30.728 39.7557 30.2397 39.1095 29.6997V29.6996ZM21.0317 29.7573C19.8928 29.7476 18.7361 30.0517 17.7803 30.7172C16.4208 31.6636 15.3728 33.3513 15.3634 36.2182V36.2379L15.3624 36.2576C15.052 42.2943 15.5324 45.0795 16.4843 46.5906C17.3244 47.9244 18.7217 48.5629 20.7657 49.7372C20.863 49.5006 20.9644 49.2096 21.0596 48.8424C21.3016 47.9082 21.5018 46.6251 21.6287 45.206C21.8827 42.3678 21.8456 38.9598 21.4209 36.5075L21.1966 35.2102L22.58 35.5048C25.9404 36.2201 27.8627 36.3046 28.9787 36.1224C30.095 35.9401 30.4733 35.5792 31.128 34.9792C31.7434 34.4155 31.732 34.2126 31.6017 33.8953C31.4712 33.5779 30.9481 33.0549 30.0604 32.5545C28.2851 31.5537 25.2683 30.6258 22.4486 29.9338C21.9861 29.8206 21.5101 29.7612 21.0317 29.7573ZM41.1312 36.5843C40.0669 37.5436 38.7572 38.3311 37.3816 38.9099C35.1513 39.8484 32.6981 40.2777 30.6629 39.6528C29.9444 39.9002 29.527 40.1845 29.3164 40.4199C29.0275 40.7429 29.0094 40.9805 29.1073 41.3208C29.2052 41.6611 29.4969 42.0651 29.8576 42.3558C30.2183 42.6465 30.6469 42.7976 30.8099 42.8047C35.7836 43.0232 37.9362 41.7025 40.6181 40.1706C41.4001 39.7239 41.6995 38.819 41.6245 37.9153C41.587 37.4635 41.4449 37.0389 41.2809 36.7715C41.2401 36.7033 41.1898 36.6403 41.1312 36.5843ZM23.4671 37.4789C23.757 39.9443 23.7618 42.8206 23.5354 45.352C23.4028 46.8343 23.1979 48.1824 22.9201 49.255C22.7992 49.7218 22.6662 50.1356 22.5055 50.5L38.098 49.8642C37.922 49.2594 37.7426 48.6521 37.5633 48.0445C36.9642 48.229 36.3519 48.3744 35.7308 48.4796L35.7355 48.5514L34.8516 48.6024C34.3073 48.6627 33.7406 48.6961 33.1527 48.6999L24.2392 49.2123L24.5042 48.0708C25.3489 44.4313 25.4268 41.2268 24.9058 37.7211C24.4245 37.649 23.9449 37.5682 23.467 37.4789H23.4671ZM26.8655 37.9395C27.2851 41.0801 27.2346 44.0775 26.6097 47.3024L28.6573 47.1847C28.3361 46.7464 28.1154 46.2517 28.0089 45.7313C27.8712 45.0547 27.9478 44.3015 28.4262 43.6788C28.4474 43.6512 28.4702 43.6247 28.4929 43.5981C27.9353 43.1216 27.4695 42.5101 27.2584 41.7762C27.0337 40.9949 27.174 40.0384 27.8427 39.2909C28.0637 39.0441 28.3308 38.8212 28.6444 38.6206C28.367 38.416 28.1238 38.1992 27.9138 37.9733C27.5881 37.9753 27.2394 37.9641 26.8655 37.9395ZM40.9666 42.0491C38.4734 43.4508 35.6723 44.7906 30.7191 44.5731C30.5575 44.5658 30.3968 44.5455 30.2389 44.5126C30.1078 44.567 30.0379 44.6361 29.9857 44.7041C29.8834 44.8373 29.8229 45.0778 29.8891 45.4036C30.0218 46.0554 30.6889 46.7696 31.3102 46.8365C35.709 47.3098 38.7483 45.9783 40.5937 44.4292C41.444 43.7154 41.4513 43.2588 41.3261 42.7621C41.2633 42.514 41.1252 42.2734 40.9666 42.0491ZM40.2562 46.8743C39.9609 47.0455 39.6578 47.205 39.3478 47.3522C39.5232 47.9473 39.699 48.5425 39.8725 49.1377L41.9898 48.7864C41.4435 48.3549 41.016 47.9057 40.6729 47.459C40.5196 47.2595 40.3845 47.0655 40.2562 46.8743Z" fill="#3C0DF5"/>
<path d="M59.4853 39.52C59.4853 40.44 59.6153 41.11 59.8753 41.53C60.1353 41.93 60.5453 42.13 61.1053 42.13C62.5053 42.13 63.4553 41.56 63.9553 40.42C64.4753 39.28 64.7353 37.72 64.7353 35.74C64.7353 34.78 64.6753 33.44 64.5553 31.72C64.4353 30.08 64.3753 28.86 64.3753 28.06C62.2353 28.06 61.1653 27.64 61.1653 26.8C61.1653 26.3 61.2453 25.97 61.4053 25.81C61.5853 25.65 61.8553 25.57 62.2153 25.57C62.4353 25.57 62.6753 25.59 62.9353 25.63C63.1953 25.65 63.3853 25.66 63.5053 25.66C63.9053 25.72 64.2853 25.75 64.6453 25.75C65.3053 25.75 65.9153 25.72 66.4753 25.66C67.1953 25.62 67.7353 25.6 68.0953 25.6C68.8153 25.6 69.3153 25.67 69.5953 25.81C69.8953 25.95 70.0453 26.22 70.0453 26.62C70.0453 27.04 69.9353 27.34 69.7153 27.52C69.5153 27.68 69.2153 27.8 68.8153 27.88L67.4353 28.03C67.4153 29.35 67.4953 30.93 67.6753 32.77C67.6953 33.05 67.7353 33.58 67.7953 34.36C67.8553 35.12 67.8853 35.82 67.8853 36.46C67.8853 39.06 67.3353 41.07 66.2353 42.49C65.1353 43.89 63.4953 44.59 61.3153 44.59C59.9553 44.59 58.8153 44.2 57.8953 43.42C56.9953 42.62 56.5453 41.43 56.5453 39.85C56.5453 39.41 56.7053 39.06 57.0253 38.8C57.3453 38.52 57.7753 38.38 58.3153 38.38C58.6953 38.38 58.9853 38.51 59.1853 38.77C59.3853 39.03 59.4853 39.28 59.4853 39.52ZM85.3223 40.42C85.7023 40.42 85.9823 40.57 86.1623 40.87C86.3623 41.15 86.4623 41.46 86.4623 41.8C86.4623 42.22 86.3923 42.52 86.2523 42.7C86.1323 42.86 85.8923 43.03 85.5323 43.21C84.6923 43.61 83.6523 43.93 82.4123 44.17C81.1723 44.41 79.8423 44.53 78.4223 44.53C76.6423 44.53 75.3323 44.23 74.4923 43.63C73.6723 43.03 73.1623 42.31 72.9623 41.47C72.7823 40.61 72.6923 39.49 72.6923 38.11C72.6923 36.63 72.7523 35.18 72.8723 33.76C72.9923 32.32 73.2023 30.49 73.5023 28.27C73.6423 27.31 74.0223 26.62 74.6423 26.2C75.2623 25.76 75.9423 25.54 76.6823 25.54C77.3023 25.54 78.3123 25.52 79.7123 25.48L82.3223 25.45C83.4023 25.45 84.1823 25.48 84.6623 25.54C85.2623 25.66 85.7023 25.8 85.9823 25.96C86.2823 26.1 86.4323 26.35 86.4323 26.71C86.4323 27.11 86.2923 27.5 86.0123 27.88C85.7523 28.26 85.3523 28.45 84.8123 28.45C84.1923 28.45 83.3023 28.41 82.1423 28.33C80.9823 28.25 80.1123 28.21 79.5323 28.21C79.0323 28.21 78.5423 28.24 78.0623 28.3C77.5023 28.34 77.1023 28.41 76.8623 28.51C76.6223 28.61 76.4823 28.78 76.4423 29.02C76.1623 31.08 76.0223 32.6 76.0223 33.58C76.4823 33.64 76.9323 33.67 77.3723 33.67C77.9323 33.67 78.5323 33.64 79.1723 33.58C79.8123 33.52 80.2223 33.48 80.4023 33.46C81.4623 33.36 82.3723 33.31 83.1323 33.31C83.5723 33.31 83.9023 33.39 84.1223 33.55C84.3623 33.71 84.4823 33.93 84.4823 34.21C84.4823 34.65 84.3623 34.99 84.1223 35.23C83.9023 35.47 83.5023 35.65 82.9223 35.77C82.2223 35.91 81.3523 36.02 80.3123 36.1C79.2923 36.18 78.2923 36.22 77.3123 36.22C76.9723 36.22 76.5023 36.2 75.9023 36.16C75.8423 37.38 75.8123 38.51 75.8123 39.55C75.8123 40.97 76.7523 41.68 78.6323 41.68C79.6323 41.68 80.4623 41.61 81.1223 41.47C81.7823 41.33 82.5423 41.13 83.4023 40.87C84.2023 40.57 84.8423 40.42 85.3223 40.42ZM103.165 39.52C103.925 40.28 104.525 40.94 104.965 41.5C105.425 42.04 105.655 42.51 105.655 42.91C105.655 43.47 105.495 43.89 105.175 44.17C104.875 44.45 104.495 44.59 104.035 44.59C103.715 44.59 103.385 44.43 103.045 44.11C102.705 43.79 102.395 43.45 102.115 43.09C101.835 42.73 101.655 42.5 101.575 42.4C101.115 41.84 100.215 40.72 98.875 39.04C97.555 37.34 96.635 36.12 96.115 35.38C95.955 35.48 95.715 35.68 95.395 35.98C95.275 36.08 94.965 36.34 94.465 36.76C93.965 37.16 93.415 37.57 92.815 37.99C92.815 38.11 92.845 39.01 92.905 40.69C92.945 41.93 92.965 42.74 92.965 43.12C92.965 43.44 92.855 43.77 92.635 44.11C92.415 44.43 92.085 44.59 91.645 44.59C91.005 44.59 90.545 44.48 90.265 44.26C89.985 44.04 89.815 43.72 89.755 43.3C89.595 42.34 89.515 41.39 89.515 40.45C89.515 39.41 89.595 37.89 89.755 35.89C89.915 34.01 89.995 32.6 89.995 31.66C89.995 31.3 89.975 30.78 89.935 30.1C89.915 29.56 89.855 29.06 89.755 28.6C89.675 27.96 89.635 27.51 89.635 27.25C89.635 26.61 89.775 26.15 90.055 25.87C90.335 25.59 90.765 25.45 91.345 25.45C91.785 25.45 92.145 25.58 92.425 25.84C92.725 26.08 92.895 26.41 92.935 26.83C93.035 28.53 93.085 29.85 93.085 30.79C93.065 31.25 93.025 31.9 92.965 32.74C92.925 33.56 92.885 34.09 92.845 34.33C93.545 33.81 94.945 32.59 97.045 30.67C99.165 28.73 100.585 27.42 101.305 26.74C101.405 26.64 101.575 26.47 101.815 26.23C102.075 25.97 102.315 25.79 102.535 25.69C102.755 25.59 102.995 25.54 103.255 25.54C103.615 25.54 103.925 25.71 104.185 26.05C104.465 26.37 104.605 26.72 104.605 27.1C104.605 27.32 104.515 27.56 104.335 27.82C104.175 28.06 103.885 28.39 103.465 28.81C102.005 30.33 100.385 31.91 98.605 33.55C99.065 34.29 99.825 35.36 100.885 36.76C101.965 38.14 102.725 39.06 103.165 39.52ZM122.034 44.05C121.774 43.71 121.554 43.34 121.374 42.94C121.194 42.52 121.004 42.02 120.804 41.44C120.764 41.34 120.644 41.04 120.444 40.54C120.264 40.04 120.054 39.61 119.814 39.25C118.554 39.43 117.524 39.52 116.724 39.52C116.284 39.52 115.794 39.51 115.254 39.49C114.734 39.45 114.344 39.43 114.084 39.43C113.084 39.35 112.284 39.31 111.684 39.31C111.444 39.63 111.234 39.97 111.054 40.33C110.894 40.69 110.684 41.23 110.424 41.95C110.064 42.99 109.754 43.73 109.494 44.17C109.314 44.47 108.964 44.62 108.444 44.62C108.004 44.62 107.594 44.53 107.214 44.35C106.854 44.15 106.674 43.88 106.674 43.54C106.834 42.78 107.084 41.98 107.424 41.14C107.784 40.28 108.294 39.14 108.954 37.72L110.154 34.78C110.814 33.1 111.414 31.66 111.954 30.46C112.514 29.26 113.244 27.84 114.144 26.2C114.264 25.96 114.464 25.76 114.744 25.6C115.024 25.42 115.334 25.33 115.674 25.33C116.054 25.33 116.324 25.36 116.484 25.42C116.664 25.46 116.804 25.54 116.904 25.66C117.004 25.76 117.154 25.98 117.354 26.32C118.034 27.38 118.614 28.47 119.094 29.59C119.594 30.71 120.224 32.26 120.984 34.24L121.614 35.83C122.174 37.27 122.654 38.48 123.054 39.46C123.474 40.42 123.934 41.3 124.434 42.1C124.754 42.62 124.914 42.98 124.914 43.18C124.914 43.66 124.764 44.03 124.464 44.29C124.184 44.53 123.814 44.65 123.354 44.65C122.774 44.65 122.334 44.45 122.034 44.05ZM118.944 36.79C118.624 36.11 118.164 34.93 117.564 33.25C116.944 31.45 116.324 30.02 115.704 28.96C115.324 29.92 114.764 31.16 114.024 32.68C113.524 33.62 112.954 34.98 112.314 36.76C113.594 36.92 114.974 37 116.454 37C117.514 37 118.344 36.93 118.944 36.79ZM128.714 39.52C128.714 40.44 128.844 41.11 129.104 41.53C129.364 41.93 129.774 42.13 130.334 42.13C131.734 42.13 132.684 41.56 133.184 40.42C133.704 39.28 133.964 37.72 133.964 35.74C133.964 34.78 133.904 33.44 133.784 31.72C133.664 30.08 133.604 28.86 133.604 28.06C131.464 28.06 130.394 27.64 130.394 26.8C130.394 26.3 130.474 25.97 130.634 25.81C130.814 25.65 131.084 25.57 131.444 25.57C131.664 25.57 131.904 25.59 132.164 25.63C132.424 25.65 132.614 25.66 132.734 25.66C133.134 25.72 133.514 25.75 133.874 25.75C134.534 25.75 135.144 25.72 135.704 25.66C136.424 25.62 136.964 25.6 137.324 25.6C138.044 25.6 138.544 25.67 138.824 25.81C139.124 25.95 139.274 26.22 139.274 26.62C139.274 27.04 139.164 27.34 138.944 27.52C138.744 27.68 138.444 27.8 138.044 27.88L136.664 28.03C136.644 29.35 136.724 30.93 136.904 32.77C136.924 33.05 136.964 33.58 137.024 34.36C137.084 35.12 137.114 35.82 137.114 36.46C137.114 39.06 136.564 41.07 135.464 42.49C134.364 43.89 132.724 44.59 130.544 44.59C129.184 44.59 128.044 44.2 127.124 43.42C126.224 42.62 125.774 41.43 125.774 39.85C125.774 39.41 125.934 39.06 126.254 38.8C126.574 38.52 127.004 38.38 127.544 38.38C127.924 38.38 128.214 38.51 128.414 38.77C128.614 39.03 128.714 39.28 128.714 39.52ZM151.011 25.42C152.291 25.42 153.391 25.58 154.311 25.9C155.251 26.22 156.081 26.71 156.801 27.37C158.061 28.51 158.941 29.76 159.441 31.12C159.961 32.46 160.221 34.18 160.221 36.28C160.221 36.8 160.151 37.29 160.011 37.75C159.871 38.19 159.661 38.73 159.381 39.37L158.991 40.33C158.711 41.09 158.131 41.8 157.251 42.46C156.371 43.1 155.381 43.61 154.281 43.99C153.181 44.37 152.181 44.56 151.281 44.56C149.441 44.56 147.831 44.26 146.451 43.66C145.091 43.04 143.961 42.07 143.061 40.75C142.601 40.05 142.241 39.27 141.981 38.41C141.721 37.53 141.591 36.69 141.591 35.89C141.591 33.85 141.951 32.08 142.671 30.58C143.411 29.06 144.431 27.88 145.731 27.04C146.471 26.6 147.351 26.22 148.371 25.9C149.411 25.58 150.291 25.42 151.011 25.42ZM144.771 35.89C144.771 36.93 145.021 37.9 145.521 38.8C146.041 39.68 146.731 40.38 147.591 40.9C148.471 41.42 149.431 41.68 150.471 41.68C152.611 41.68 154.241 41.14 155.361 40.06C156.501 38.98 157.071 37.46 157.071 35.5C157.071 33.98 156.901 32.78 156.561 31.9C156.221 31.02 155.611 30.23 154.731 29.53C154.251 29.13 153.731 28.85 153.171 28.69C152.631 28.51 151.991 28.42 151.251 28.42C149.971 28.42 148.841 28.74 147.861 29.38C146.881 30.02 146.121 30.91 145.581 32.05C145.041 33.19 144.771 34.47 144.771 35.89ZM168.191 25.48C170.911 25.48 173.061 25.86 174.641 26.62C176.241 27.36 177.451 28.19 178.271 29.11C178.931 29.87 179.471 30.75 179.891 31.75C180.311 32.73 180.521 33.91 180.521 35.29C180.521 36.31 180.291 37.38 179.831 38.5C179.371 39.6 178.771 40.49 178.031 41.17C177.251 41.91 176.511 42.51 175.811 42.97C175.131 43.43 174.201 43.81 173.021 44.11C171.861 44.39 170.381 44.53 168.581 44.53C167.221 44.53 165.991 44.38 164.891 44.08C163.791 43.76 163.241 43.23 163.241 42.49C163.241 42.19 163.371 41.96 163.631 41.8C163.911 41.62 164.211 41.53 164.531 41.53C164.711 41.53 164.831 41.54 164.891 41.56C165.031 40.24 165.101 38.84 165.101 37.36C165.101 35.7 165.061 34.33 164.981 33.25C164.901 32.15 164.791 31.06 164.651 29.98C164.631 29.84 164.581 29.45 164.501 28.81C164.441 28.17 164.411 27.52 164.411 26.86C164.411 26.44 164.621 26.09 165.041 25.81C165.461 25.51 165.891 25.36 166.331 25.36C166.591 25.36 166.941 25.38 167.381 25.42C167.741 25.46 168.011 25.48 168.191 25.48ZM167.801 41.71C168.281 41.79 168.911 41.83 169.691 41.83C171.011 41.83 172.261 41.56 173.441 41.02C174.621 40.46 175.571 39.69 176.291 38.71C177.011 37.71 177.371 36.56 177.371 35.26C177.371 33.9 177.131 32.74 176.651 31.78C176.171 30.82 175.431 30.03 174.431 29.41C173.691 28.95 172.781 28.62 171.701 28.42C170.621 28.2 169.321 28.09 167.801 28.09C167.801 28.57 167.831 29.17 167.891 29.89C167.891 30.13 167.911 30.55 167.951 31.15C168.071 33.47 168.131 35.34 168.131 36.76C168.131 38.82 168.021 40.47 167.801 41.71ZM197.181 44.05C196.921 43.71 196.701 43.34 196.521 42.94C196.341 42.52 196.151 42.02 195.951 41.44C195.911 41.34 195.791 41.04 195.591 40.54C195.411 40.04 195.201 39.61 194.961 39.25C193.701 39.43 192.671 39.52 191.871 39.52C191.431 39.52 190.941 39.51 190.401 39.49C189.881 39.45 189.491 39.43 189.231 39.43C188.231 39.35 187.431 39.31 186.831 39.31C186.591 39.63 186.381 39.97 186.201 40.33C186.041 40.69 185.831 41.23 185.571 41.95C185.211 42.99 184.901 43.73 184.641 44.17C184.461 44.47 184.111 44.62 183.591 44.62C183.151 44.62 182.741 44.53 182.361 44.35C182.001 44.15 181.821 43.88 181.821 43.54C181.981 42.78 182.231 41.98 182.571 41.14C182.931 40.28 183.441 39.14 184.101 37.72L185.301 34.78C185.961 33.1 186.561 31.66 187.101 30.46C187.661 29.26 188.391 27.84 189.291 26.2C189.411 25.96 189.611 25.76 189.891 25.6C190.171 25.42 190.481 25.33 190.821 25.33C191.201 25.33 191.471 25.36 191.631 25.42C191.811 25.46 191.951 25.54 192.051 25.66C192.151 25.76 192.301 25.98 192.501 26.32C193.181 27.38 193.761 28.47 194.241 29.59C194.741 30.71 195.371 32.26 196.131 34.24L196.761 35.83C197.321 37.27 197.801 38.48 198.201 39.46C198.621 40.42 199.081 41.3 199.581 42.1C199.901 42.62 200.061 42.98 200.061 43.18C200.061 43.66 199.911 44.03 199.611 44.29C199.331 44.53 198.961 44.65 198.501 44.65C197.921 44.65 197.481 44.45 197.181 44.05ZM194.091 36.79C193.771 36.11 193.311 34.93 192.711 33.25C192.091 31.45 191.471 30.02 190.851 28.96C190.471 29.92 189.911 31.16 189.171 32.68C188.671 33.62 188.101 34.98 187.461 36.76C188.741 36.92 190.121 37 191.601 37C192.661 37 193.491 36.93 194.091 36.79ZM222.25 27.16C222.37 26.74 222.55 26.4 222.79 26.14C223.03 25.86 223.29 25.72 223.57 25.72C224.25 25.72 224.74 25.85 225.04 26.11C225.34 26.37 225.49 26.82 225.49 27.46C225.49 27.64 225.35 28.15 225.07 28.99C224.45 30.89 223.77 33.24 223.03 36.04C222.85 36.68 222.7 37.24 222.58 37.72C222.48 38.2 222.39 38.6 222.31 38.92C221.83 40.98 221.41 42.53 221.05 43.57C220.93 43.87 220.72 44.11 220.42 44.29C220.12 44.45 219.8 44.53 219.46 44.53C219.12 44.53 218.78 44.46 218.44 44.32C218.12 44.16 217.89 43.98 217.75 43.78C217.15 42.6 216.39 40.75 215.47 38.23C214.55 35.69 213.84 33.29 213.34 31.03C212.88 33.19 212.38 35.13 211.84 36.85C211.32 38.57 210.72 40.38 210.04 42.28C209.96 42.52 209.88 42.75 209.8 42.97C209.72 43.17 209.65 43.37 209.59 43.57C209.45 43.87 209.25 44.11 208.99 44.29C208.73 44.45 208.44 44.53 208.12 44.53C207.76 44.53 207.41 44.46 207.07 44.32C206.73 44.16 206.5 43.98 206.38 43.78C206.12 43.34 205.84 42.66 205.54 41.74C205.26 40.82 204.88 39.53 204.4 37.87L203.65 35.32C203.13 33.66 202.68 31.96 202.3 30.22C201.92 28.48 201.73 27.44 201.73 27.1C201.73 26.68 201.94 26.35 202.36 26.11C202.78 25.85 203.2 25.72 203.62 25.72C203.86 25.72 204.11 25.8 204.37 25.96C204.63 26.1 204.8 26.35 204.88 26.71C205.58 30.45 206.61 34.79 207.97 39.73C208.31 38.95 208.63 38.03 208.93 36.97C209.25 35.89 209.68 34.38 210.22 32.44C210.92 29.9 211.45 28.09 211.81 27.01C211.89 26.71 212.09 26.47 212.41 26.29C212.75 26.11 213.09 26.02 213.43 26.02C213.87 26.02 214.23 26.14 214.51 26.38C214.79 26.6 214.97 26.84 215.05 27.1L215.29 28.03C215.91 30.37 216.53 32.56 217.15 34.6C217.77 36.64 218.4 38.35 219.04 39.73C219.44 38.55 219.92 36.66 220.48 34.06L220.93 32.08C221.47 29.96 221.91 28.32 222.25 27.16ZM237.474 44.53C236.154 44.53 234.944 44.37 233.844 44.05C232.744 43.71 231.844 43.22 231.144 42.58C229.864 41.44 228.964 40.2 228.444 38.86C227.944 37.5 227.694 35.77 227.694 33.67C227.694 33.23 227.754 32.82 227.874 32.44C228.014 32.04 228.194 31.6 228.414 31.12C228.474 30.98 228.564 30.76 228.684 30.46C228.824 30.14 228.914 29.85 228.954 29.59C229.334 28.89 229.974 28.22 230.874 27.58C231.794 26.94 232.784 26.43 233.844 26.05C234.904 25.65 235.834 25.45 236.634 25.45C240.494 25.45 243.254 26.77 244.914 29.41C245.854 30.95 246.324 32.5 246.324 34.06C246.324 36.08 245.954 37.85 245.214 39.37C244.494 40.89 243.494 42.07 242.214 42.91C241.414 43.39 240.594 43.78 239.754 44.08C238.914 44.38 238.154 44.53 237.474 44.53ZM230.814 35.89C230.794 36.99 231.024 37.9 231.504 38.62C232.004 39.32 232.784 40.09 233.844 40.93C234.644 41.23 235.204 41.43 235.524 41.53C235.844 41.63 236.194 41.68 236.574 41.68C237.874 41.68 239.024 41.41 240.024 40.87C241.024 40.33 241.794 39.59 242.334 38.65C242.894 37.71 243.174 36.66 243.174 35.5C243.174 33.98 243.004 32.78 242.664 31.9C242.324 31.02 241.714 30.23 240.834 29.53C240.374 29.15 239.784 28.87 239.064 28.69C238.364 28.51 237.614 28.42 236.814 28.42C234.894 28.42 233.404 29.1 232.344 30.46C231.304 31.8 230.794 33.61 230.814 35.89Z" fill="#3C0DF5"/>
</svg>
