<svg width="260" height="56" viewBox="0 0 260 56" fill="none" xmlns="http://www.w3.org/2000/svg">
<path d="M24.5524 6.00084C24.132 5.99953 23.7103 5.99976 23.2875 6.00153C21.2524 6.01028 19.1847 6.05975 17.0994 6.13135L17.7027 8.57955C19.8743 8.35237 22.2551 8.18321 24.6357 8.09862C25.9254 8.05279 27.2073 8.0286 28.4507 8.0347C32.181 8.0527 35.5655 8.34253 37.7798 9.13641L38.7266 9.4761L38.3039 10.3303C35.215 16.574 34.5006 22.5976 34.9847 28.5078C35.2236 21.4937 38.3746 15.2552 42.5111 7.25764C36.8824 6.39217 30.8581 6.02021 24.5524 6.00074V6.00084ZM27.5321 9.8158C26.6031 9.81649 25.6561 9.8339 24.7092 9.86753C20.2798 10.0249 15.8659 10.5058 12.9891 11.0572C16.2026 16.5725 18.8022 22.1005 20.4808 27.4895C20.6896 27.4831 20.8986 27.4846 21.1073 27.494C21.5344 27.5133 21.9568 27.5669 22.3695 27.6503C20.6609 22.5955 18.7147 17.9334 16.2954 13.2785L15.7488 12.2267L16.9909 12.0233C20.1111 11.5121 23.3317 11.3142 26.3969 11.3134C26.6014 11.3134 26.805 11.3142 27.0079 11.3157C28.9556 11.3315 30.8327 11.4247 32.5718 11.565L33.7467 11.6599L33.404 12.7041C31.4164 18.7588 31.0271 25.2611 32.1509 31.4477C32.1697 31.4636 32.1884 31.4797 32.2068 31.4959C32.6121 31.3645 32.9912 31.2305 33.3446 31.0874C32.4673 24.4592 32.856 17.6211 36.1325 10.5126C34.3041 10.0815 31.5168 9.85622 28.4542 9.82082C28.1469 9.8173 27.8395 9.81556 27.5321 9.8158ZM42.9384 10.5421C39.6481 16.9895 37.3111 22.1562 36.928 27.7338C39.0578 21.1639 43.1746 15.2745 47.8657 11.4907C46.2374 11.1148 44.5936 10.7984 42.9384 10.5421ZM11.5869 12.3644C9.59285 12.7448 7.64497 13.2277 5.76086 13.8949C6.67773 14.6306 8.33522 15.9991 10.3462 17.818C11.2718 16.9365 12.2158 16.0656 13.2003 15.2737C12.6789 14.2962 12.141 13.3264 11.5869 12.3644ZM26.6825 13.1003C25.2349 13.0938 23.753 13.1321 22.2658 13.2274C22.1097 14.5731 21.2496 15.8319 20.2223 17.0699C21.8625 20.6566 23.279 24.3166 24.5543 28.2025C26.5074 28.7355 28.4396 29.3657 30.0049 30.1207C29.4235 25.945 29.503 21.6663 30.2578 17.482C28.8883 16.173 28.1749 14.7194 28.1177 13.1212C27.6394 13.1094 27.161 13.1024 26.6825 13.1003ZM46.0293 15.7542C43.4008 18.6359 41.0846 22.245 39.5063 26.1706C42.4042 22.3564 45.9677 19.3813 49.7609 17.2798C48.5251 16.7546 47.2811 16.246 46.0293 15.7542ZM14.0635 16.9304C12.5123 18.2274 10.9796 19.7842 9.38346 21.2673C12.8155 23.1547 15.7387 25.3899 18.1233 27.9216C18.2714 27.8699 18.4209 27.8233 18.5713 27.781C17.4555 24.2309 15.9263 20.5982 14.0635 16.9304ZM38.8703 29.1996C37.1275 31.1458 35.4867 32.1732 33.2274 32.993C33.4815 33.8997 33.1041 34.9408 32.2353 35.737C31.7242 36.2052 31.082 36.739 30.143 37.0859C30.2785 37.1601 30.4168 37.2299 30.5576 37.2951C31.8718 37.9019 34.1935 37.7062 36.3504 36.7985C38.5007 35.8937 40.4215 34.3307 41.1335 32.7474C41.4903 31.8573 41.2355 31.3931 40.6108 30.7123C40.1661 30.228 39.5166 29.7397 38.8703 29.1997V29.1996ZM20.7926 29.2573C19.6537 29.2476 18.497 29.5517 17.5411 30.2172C16.1817 31.1636 15.1337 32.8513 15.1243 35.7182V35.7379L15.1232 35.7576C14.8129 41.7943 15.2933 44.5795 16.2451 46.0906C17.0853 47.4244 18.4826 48.0629 20.5265 49.2372C20.6239 49.0006 20.7253 48.7096 20.8204 48.3424C21.0624 47.4082 21.2627 46.1251 21.3896 44.706C21.6435 41.8678 21.6064 38.4598 21.1818 36.0075L20.9574 34.7102L22.3409 35.0048C25.7013 35.7201 27.6235 35.8046 28.7396 35.6224C29.8558 35.4401 30.2341 35.0792 30.8889 34.4792C31.5043 33.9155 31.4928 33.7126 31.3625 33.3953C31.2321 33.0779 30.7089 32.5549 29.8213 32.0545C28.0459 31.0537 25.0292 30.1258 22.2094 29.4338C21.7469 29.3206 21.271 29.2612 20.7926 29.2573ZM40.8921 36.0843C39.8278 37.0436 38.5181 37.8311 37.1425 38.4099C34.9122 39.3484 32.459 39.7777 30.4238 39.1528C29.7052 39.4002 29.2878 39.6845 29.0773 39.9199C28.7884 40.2429 28.7703 40.4805 28.8682 40.8208C28.9661 41.1611 29.2578 41.5651 29.6185 41.8558C29.9791 42.1465 30.4078 42.2976 30.5708 42.3047C35.5445 42.5232 37.6971 41.2025 40.3789 39.6706C41.161 39.2239 41.4603 38.319 41.3854 37.4153C41.3479 36.9635 41.2058 36.5389 41.0418 36.2715C41.001 36.2033 40.9507 36.1403 40.8921 36.0843ZM23.228 36.9789C23.5179 39.4443 23.5226 42.3206 23.2962 44.852C23.1637 46.3343 22.9588 47.6824 22.6809 48.755C22.5601 49.2218 22.4271 49.6356 22.2664 50L37.8589 49.3642C37.6829 48.7594 37.5034 48.1521 37.3241 47.5445C36.7251 47.729 36.1128 47.8744 35.4917 47.9796L35.4964 48.0514L34.6125 48.1024C34.0681 48.1627 33.5015 48.1961 32.9136 48.1999L24.0001 48.7123L24.2651 47.5708C25.1098 43.9313 25.1877 40.7268 24.6666 37.2211C24.1854 37.149 23.7057 37.0682 23.2279 36.9789H23.228ZM26.6263 37.4395C27.046 40.5801 26.9955 43.5775 26.3706 46.8024L28.4182 46.6847C28.097 46.2464 27.8763 45.7517 27.7698 45.2313C27.632 44.5547 27.7087 43.8015 28.1871 43.1788C28.2082 43.1512 28.2311 43.1247 28.2537 43.0981C27.6961 42.6216 27.2304 42.0101 27.0193 41.2762C26.7946 40.4949 26.9349 39.5384 27.6036 38.7909C27.8245 38.5441 28.0916 38.3212 28.4053 38.1206C28.1279 37.916 27.8847 37.6992 27.6747 37.4733C27.349 37.4753 27.0002 37.4641 26.6263 37.4395ZM40.7275 41.5491C38.2343 42.9508 35.4331 44.2906 30.48 44.0731C30.3183 44.0658 30.1577 44.0455 29.9998 44.0126C29.8687 44.067 29.7988 44.1361 29.7466 44.2041C29.6442 44.3373 29.5837 44.5778 29.65 44.9036C29.7826 45.5554 30.4498 46.2696 31.0711 46.3365C35.4699 46.8098 38.5092 45.4783 40.3546 43.9292C41.2049 43.2154 41.2121 42.7588 41.0869 42.2621C41.0242 42.014 40.886 41.7734 40.7275 41.5491ZM40.0171 46.3743C39.7218 46.5455 39.4187 46.705 39.1086 46.8522C39.284 47.4473 39.4598 48.0425 39.6334 48.6377L41.7507 48.2864C41.2044 47.8549 40.7769 47.4057 40.4338 46.959C40.2805 46.7595 40.1454 46.5655 40.0171 46.3743Z" fill="white"/>
<path d="M59.2461 39.02C59.2461 39.94 59.3761 40.61 59.6361 41.03C59.8961 41.43 60.3061 41.63 60.8661 41.63C62.2661 41.63 63.2161 41.06 63.7161 39.92C64.2361 38.78 64.4961 37.22 64.4961 35.24C64.4961 34.28 64.4361 32.94 64.3161 31.22C64.1961 29.58 64.1361 28.36 64.1361 27.56C61.9961 27.56 60.9261 27.14 60.9261 26.3C60.9261 25.8 61.0061 25.47 61.1661 25.31C61.3461 25.15 61.6161 25.07 61.9761 25.07C62.1961 25.07 62.4361 25.09 62.6961 25.13C62.9561 25.15 63.1461 25.16 63.2661 25.16C63.6661 25.22 64.0461 25.25 64.4061 25.25C65.0661 25.25 65.6761 25.22 66.2361 25.16C66.9561 25.12 67.4961 25.1 67.8561 25.1C68.5761 25.1 69.0761 25.17 69.3561 25.31C69.6561 25.45 69.8061 25.72 69.8061 26.12C69.8061 26.54 69.6961 26.84 69.4761 27.02C69.2761 27.18 68.9761 27.3 68.5761 27.38L67.1961 27.53C67.1761 28.85 67.2561 30.43 67.4361 32.27C67.4561 32.55 67.4961 33.08 67.5561 33.86C67.6161 34.62 67.6461 35.32 67.6461 35.96C67.6461 38.56 67.0961 40.57 65.9961 41.99C64.8961 43.39 63.2561 44.09 61.0761 44.09C59.7161 44.09 58.5761 43.7 57.6561 42.92C56.7561 42.12 56.3061 40.93 56.3061 39.35C56.3061 38.91 56.4661 38.56 56.7861 38.3C57.1061 38.02 57.5361 37.88 58.0761 37.88C58.4561 37.88 58.7461 38.01 58.9461 38.27C59.1461 38.53 59.2461 38.78 59.2461 39.02ZM85.0832 39.92C85.4632 39.92 85.7432 40.07 85.9232 40.37C86.1232 40.65 86.2232 40.96 86.2232 41.3C86.2232 41.72 86.1532 42.02 86.0132 42.2C85.8932 42.36 85.6532 42.53 85.2932 42.71C84.4532 43.11 83.4132 43.43 82.1732 43.67C80.9332 43.91 79.6032 44.03 78.1832 44.03C76.4032 44.03 75.0932 43.73 74.2532 43.13C73.4332 42.53 72.9232 41.81 72.7232 40.97C72.5432 40.11 72.4532 38.99 72.4532 37.61C72.4532 36.13 72.5132 34.68 72.6332 33.26C72.7532 31.82 72.9632 29.99 73.2632 27.77C73.4032 26.81 73.7832 26.12 74.4032 25.7C75.0232 25.26 75.7032 25.04 76.4432 25.04C77.0632 25.04 78.0732 25.02 79.4732 24.98L82.0832 24.95C83.1632 24.95 83.9432 24.98 84.4232 25.04C85.0232 25.16 85.4632 25.3 85.7432 25.46C86.0432 25.6 86.1932 25.85 86.1932 26.21C86.1932 26.61 86.0532 27 85.7732 27.38C85.5132 27.76 85.1132 27.95 84.5732 27.95C83.9532 27.95 83.0632 27.91 81.9032 27.83C80.7432 27.75 79.8732 27.71 79.2932 27.71C78.7932 27.71 78.3032 27.74 77.8232 27.8C77.2632 27.84 76.8632 27.91 76.6232 28.01C76.3832 28.11 76.2432 28.28 76.2032 28.52C75.9232 30.58 75.7832 32.1 75.7832 33.08C76.2432 33.14 76.6932 33.17 77.1332 33.17C77.6932 33.17 78.2932 33.14 78.9332 33.08C79.5732 33.02 79.9832 32.98 80.1632 32.96C81.2232 32.86 82.1332 32.81 82.8932 32.81C83.3332 32.81 83.6632 32.89 83.8832 33.05C84.1232 33.21 84.2432 33.43 84.2432 33.71C84.2432 34.15 84.1232 34.49 83.8832 34.73C83.6632 34.97 83.2632 35.15 82.6832 35.27C81.9832 35.41 81.1132 35.52 80.0732 35.6C79.0532 35.68 78.0532 35.72 77.0732 35.72C76.7332 35.72 76.2632 35.7 75.6632 35.66C75.6032 36.88 75.5732 38.01 75.5732 39.05C75.5732 40.47 76.5132 41.18 78.3932 41.18C79.3932 41.18 80.2232 41.11 80.8832 40.97C81.5432 40.83 82.3032 40.63 83.1632 40.37C83.9632 40.07 84.6032 39.92 85.0832 39.92ZM102.926 39.02C103.686 39.78 104.286 40.44 104.726 41C105.186 41.54 105.416 42.01 105.416 42.41C105.416 42.97 105.256 43.39 104.936 43.67C104.636 43.95 104.256 44.09 103.796 44.09C103.476 44.09 103.146 43.93 102.806 43.61C102.466 43.29 102.156 42.95 101.876 42.59C101.596 42.23 101.416 42 101.336 41.9C100.876 41.34 99.9759 40.22 98.6359 38.54C97.3159 36.84 96.3959 35.62 95.8759 34.88C95.7159 34.98 95.4759 35.18 95.1559 35.48C95.0359 35.58 94.7259 35.84 94.2259 36.26C93.7259 36.66 93.1759 37.07 92.5759 37.49C92.5759 37.61 92.6059 38.51 92.6659 40.19C92.7059 41.43 92.7259 42.24 92.7259 42.62C92.7259 42.94 92.6159 43.27 92.3959 43.61C92.1759 43.93 91.8459 44.09 91.4059 44.09C90.7659 44.09 90.3059 43.98 90.0259 43.76C89.7459 43.54 89.5759 43.22 89.5159 42.8C89.3559 41.84 89.2759 40.89 89.2759 39.95C89.2759 38.91 89.3559 37.39 89.5159 35.39C89.6759 33.51 89.7559 32.1 89.7559 31.16C89.7559 30.8 89.7359 30.28 89.6959 29.6C89.6759 29.06 89.6159 28.56 89.5159 28.1C89.4359 27.46 89.3959 27.01 89.3959 26.75C89.3959 26.11 89.5359 25.65 89.8159 25.37C90.0959 25.09 90.5259 24.95 91.1059 24.95C91.5459 24.95 91.9059 25.08 92.1859 25.34C92.4859 25.58 92.6559 25.91 92.6959 26.33C92.7959 28.03 92.8459 29.35 92.8459 30.29C92.8259 30.75 92.7859 31.4 92.7259 32.24C92.6859 33.06 92.6459 33.59 92.6059 33.83C93.3059 33.31 94.7059 32.09 96.8059 30.17C98.9259 28.23 100.346 26.92 101.066 26.24C101.166 26.14 101.336 25.97 101.576 25.73C101.836 25.47 102.076 25.29 102.296 25.19C102.516 25.09 102.756 25.04 103.016 25.04C103.376 25.04 103.686 25.21 103.946 25.55C104.226 25.87 104.366 26.22 104.366 26.6C104.366 26.82 104.276 27.06 104.096 27.32C103.936 27.56 103.646 27.89 103.226 28.31C101.766 29.83 100.146 31.41 98.3659 33.05C98.8259 33.79 99.5859 34.86 100.646 36.26C101.726 37.64 102.486 38.56 102.926 39.02ZM121.795 43.55C121.535 43.21 121.315 42.84 121.135 42.44C120.955 42.02 120.765 41.52 120.565 40.94C120.525 40.84 120.405 40.54 120.205 40.04C120.025 39.54 119.815 39.11 119.575 38.75C118.315 38.93 117.285 39.02 116.485 39.02C116.045 39.02 115.555 39.01 115.015 38.99C114.495 38.95 114.105 38.93 113.845 38.93C112.845 38.85 112.045 38.81 111.445 38.81C111.205 39.13 110.995 39.47 110.815 39.83C110.655 40.19 110.445 40.73 110.185 41.45C109.825 42.49 109.515 43.23 109.255 43.67C109.075 43.97 108.725 44.12 108.205 44.12C107.765 44.12 107.355 44.03 106.975 43.85C106.615 43.65 106.435 43.38 106.435 43.04C106.595 42.28 106.845 41.48 107.185 40.64C107.545 39.78 108.055 38.64 108.715 37.22L109.915 34.28C110.575 32.6 111.175 31.16 111.715 29.96C112.275 28.76 113.005 27.34 113.905 25.7C114.025 25.46 114.225 25.26 114.505 25.1C114.785 24.92 115.095 24.83 115.435 24.83C115.815 24.83 116.085 24.86 116.245 24.92C116.425 24.96 116.565 25.04 116.665 25.16C116.765 25.26 116.915 25.48 117.115 25.82C117.795 26.88 118.375 27.97 118.855 29.09C119.355 30.21 119.985 31.76 120.745 33.74L121.375 35.33C121.935 36.77 122.415 37.98 122.815 38.96C123.235 39.92 123.695 40.8 124.195 41.6C124.515 42.12 124.675 42.48 124.675 42.68C124.675 43.16 124.525 43.53 124.225 43.79C123.945 44.03 123.575 44.15 123.115 44.15C122.535 44.15 122.095 43.95 121.795 43.55ZM118.705 36.29C118.385 35.61 117.925 34.43 117.325 32.75C116.705 30.95 116.085 29.52 115.465 28.46C115.085 29.42 114.525 30.66 113.785 32.18C113.285 33.12 112.715 34.48 112.075 36.26C113.355 36.42 114.735 36.5 116.215 36.5C117.275 36.5 118.105 36.43 118.705 36.29ZM128.475 39.02C128.475 39.94 128.605 40.61 128.865 41.03C129.125 41.43 129.535 41.63 130.095 41.63C131.495 41.63 132.445 41.06 132.945 39.92C133.465 38.78 133.725 37.22 133.725 35.24C133.725 34.28 133.665 32.94 133.545 31.22C133.425 29.58 133.365 28.36 133.365 27.56C131.225 27.56 130.155 27.14 130.155 26.3C130.155 25.8 130.235 25.47 130.395 25.31C130.575 25.15 130.845 25.07 131.205 25.07C131.425 25.07 131.665 25.09 131.925 25.13C132.185 25.15 132.375 25.16 132.495 25.16C132.895 25.22 133.275 25.25 133.635 25.25C134.295 25.25 134.905 25.22 135.465 25.16C136.185 25.12 136.725 25.1 137.085 25.1C137.805 25.1 138.305 25.17 138.585 25.31C138.885 25.45 139.035 25.72 139.035 26.12C139.035 26.54 138.925 26.84 138.705 27.02C138.505 27.18 138.205 27.3 137.805 27.38L136.425 27.53C136.405 28.85 136.485 30.43 136.665 32.27C136.685 32.55 136.725 33.08 136.785 33.86C136.845 34.62 136.875 35.32 136.875 35.96C136.875 38.56 136.325 40.57 135.225 41.99C134.125 43.39 132.485 44.09 130.305 44.09C128.945 44.09 127.805 43.7 126.885 42.92C125.985 42.12 125.535 40.93 125.535 39.35C125.535 38.91 125.695 38.56 126.015 38.3C126.335 38.02 126.765 37.88 127.305 37.88C127.685 37.88 127.975 38.01 128.175 38.27C128.375 38.53 128.475 38.78 128.475 39.02ZM150.772 24.92C152.052 24.92 153.152 25.08 154.072 25.4C155.012 25.72 155.842 26.21 156.562 26.87C157.822 28.01 158.702 29.26 159.202 30.62C159.722 31.96 159.982 33.68 159.982 35.78C159.982 36.3 159.912 36.79 159.772 37.25C159.632 37.69 159.422 38.23 159.142 38.87L158.752 39.83C158.472 40.59 157.892 41.3 157.012 41.96C156.132 42.6 155.142 43.11 154.042 43.49C152.942 43.87 151.942 44.06 151.042 44.06C149.202 44.06 147.592 43.76 146.212 43.16C144.852 42.54 143.722 41.57 142.822 40.25C142.362 39.55 142.002 38.77 141.742 37.91C141.482 37.03 141.352 36.19 141.352 35.39C141.352 33.35 141.712 31.58 142.432 30.08C143.172 28.56 144.192 27.38 145.492 26.54C146.232 26.1 147.112 25.72 148.132 25.4C149.172 25.08 150.052 24.92 150.772 24.92ZM144.532 35.39C144.532 36.43 144.782 37.4 145.282 38.3C145.802 39.18 146.492 39.88 147.352 40.4C148.232 40.92 149.192 41.18 150.232 41.18C152.372 41.18 154.002 40.64 155.122 39.56C156.262 38.48 156.832 36.96 156.832 35C156.832 33.48 156.662 32.28 156.322 31.4C155.982 30.52 155.372 29.73 154.492 29.03C154.012 28.63 153.492 28.35 152.932 28.19C152.392 28.01 151.752 27.92 151.012 27.92C149.732 27.92 148.602 28.24 147.622 28.88C146.642 29.52 145.882 30.41 145.342 31.55C144.802 32.69 144.532 33.97 144.532 35.39ZM167.952 24.98C170.672 24.98 172.822 25.36 174.402 26.12C176.002 26.86 177.212 27.69 178.032 28.61C178.692 29.37 179.232 30.25 179.652 31.25C180.072 32.23 180.282 33.41 180.282 34.79C180.282 35.81 180.052 36.88 179.592 38C179.132 39.1 178.532 39.99 177.792 40.67C177.012 41.41 176.272 42.01 175.572 42.47C174.892 42.93 173.962 43.31 172.782 43.61C171.622 43.89 170.142 44.03 168.342 44.03C166.982 44.03 165.752 43.88 164.652 43.58C163.552 43.26 163.002 42.73 163.002 41.99C163.002 41.69 163.132 41.46 163.392 41.3C163.672 41.12 163.972 41.03 164.292 41.03C164.472 41.03 164.592 41.04 164.652 41.06C164.792 39.74 164.862 38.34 164.862 36.86C164.862 35.2 164.822 33.83 164.742 32.75C164.662 31.65 164.552 30.56 164.412 29.48C164.392 29.34 164.342 28.95 164.262 28.31C164.202 27.67 164.172 27.02 164.172 26.36C164.172 25.94 164.382 25.59 164.802 25.31C165.222 25.01 165.652 24.86 166.092 24.86C166.352 24.86 166.702 24.88 167.142 24.92C167.502 24.96 167.772 24.98 167.952 24.98ZM167.562 41.21C168.042 41.29 168.672 41.33 169.452 41.33C170.772 41.33 172.022 41.06 173.202 40.52C174.382 39.96 175.332 39.19 176.052 38.21C176.772 37.21 177.132 36.06 177.132 34.76C177.132 33.4 176.892 32.24 176.412 31.28C175.932 30.32 175.192 29.53 174.192 28.91C173.452 28.45 172.542 28.12 171.462 27.92C170.382 27.7 169.082 27.59 167.562 27.59C167.562 28.07 167.592 28.67 167.652 29.39C167.652 29.63 167.672 30.05 167.712 30.65C167.832 32.97 167.892 34.84 167.892 36.26C167.892 38.32 167.782 39.97 167.562 41.21ZM196.942 43.55C196.682 43.21 196.462 42.84 196.282 42.44C196.102 42.02 195.912 41.52 195.712 40.94C195.672 40.84 195.552 40.54 195.352 40.04C195.172 39.54 194.962 39.11 194.722 38.75C193.462 38.93 192.432 39.02 191.632 39.02C191.192 39.02 190.702 39.01 190.162 38.99C189.642 38.95 189.252 38.93 188.992 38.93C187.992 38.85 187.192 38.81 186.592 38.81C186.352 39.13 186.142 39.47 185.962 39.83C185.802 40.19 185.592 40.73 185.332 41.45C184.972 42.49 184.662 43.23 184.402 43.67C184.222 43.97 183.872 44.12 183.352 44.12C182.912 44.12 182.502 44.03 182.122 43.85C181.762 43.65 181.582 43.38 181.582 43.04C181.742 42.28 181.992 41.48 182.332 40.64C182.692 39.78 183.202 38.64 183.862 37.22L185.062 34.28C185.722 32.6 186.322 31.16 186.862 29.96C187.422 28.76 188.152 27.34 189.052 25.7C189.172 25.46 189.372 25.26 189.652 25.1C189.932 24.92 190.242 24.83 190.582 24.83C190.962 24.83 191.232 24.86 191.392 24.92C191.572 24.96 191.712 25.04 191.812 25.16C191.912 25.26 192.062 25.48 192.262 25.82C192.942 26.88 193.522 27.97 194.002 29.09C194.502 30.21 195.132 31.76 195.892 33.74L196.522 35.33C197.082 36.77 197.562 37.98 197.962 38.96C198.382 39.92 198.842 40.8 199.342 41.6C199.662 42.12 199.822 42.48 199.822 42.68C199.822 43.16 199.672 43.53 199.372 43.79C199.092 44.03 198.722 44.15 198.262 44.15C197.682 44.15 197.242 43.95 196.942 43.55ZM193.852 36.29C193.532 35.61 193.072 34.43 192.472 32.75C191.852 30.95 191.232 29.52 190.612 28.46C190.232 29.42 189.672 30.66 188.932 32.18C188.432 33.12 187.862 34.48 187.222 36.26C188.502 36.42 189.882 36.5 191.362 36.5C192.422 36.5 193.252 36.43 193.852 36.29ZM222.011 26.66C222.131 26.24 222.311 25.9 222.551 25.64C222.791 25.36 223.051 25.22 223.331 25.22C224.011 25.22 224.501 25.35 224.801 25.61C225.101 25.87 225.251 26.32 225.251 26.96C225.251 27.14 225.111 27.65 224.831 28.49C224.211 30.39 223.531 32.74 222.791 35.54C222.611 36.18 222.461 36.74 222.341 37.22C222.241 37.7 222.151 38.1 222.071 38.42C221.591 40.48 221.171 42.03 220.811 43.07C220.691 43.37 220.481 43.61 220.181 43.79C219.881 43.95 219.561 44.03 219.221 44.03C218.881 44.03 218.541 43.96 218.201 43.82C217.881 43.66 217.651 43.48 217.511 43.28C216.911 42.1 216.151 40.25 215.231 37.73C214.311 35.19 213.601 32.79 213.101 30.53C212.641 32.69 212.141 34.63 211.601 36.35C211.081 38.07 210.481 39.88 209.801 41.78C209.721 42.02 209.641 42.25 209.561 42.47C209.481 42.67 209.411 42.87 209.351 43.07C209.211 43.37 209.011 43.61 208.751 43.79C208.491 43.95 208.201 44.03 207.881 44.03C207.521 44.03 207.171 43.96 206.831 43.82C206.491 43.66 206.261 43.48 206.141 43.28C205.881 42.84 205.601 42.16 205.301 41.24C205.021 40.32 204.641 39.03 204.161 37.37L203.411 34.82C202.891 33.16 202.441 31.46 202.061 29.72C201.681 27.98 201.491 26.94 201.491 26.6C201.491 26.18 201.701 25.85 202.121 25.61C202.541 25.35 202.961 25.22 203.381 25.22C203.621 25.22 203.871 25.3 204.131 25.46C204.391 25.6 204.561 25.85 204.641 26.21C205.341 29.95 206.371 34.29 207.731 39.23C208.071 38.45 208.391 37.53 208.691 36.47C209.011 35.39 209.441 33.88 209.981 31.94C210.681 29.4 211.211 27.59 211.571 26.51C211.651 26.21 211.851 25.97 212.171 25.79C212.511 25.61 212.851 25.52 213.191 25.52C213.631 25.52 213.991 25.64 214.271 25.88C214.551 26.1 214.731 26.34 214.811 26.6L215.051 27.53C215.671 29.87 216.291 32.06 216.911 34.1C217.531 36.14 218.161 37.85 218.801 39.23C219.201 38.05 219.681 36.16 220.241 33.56L220.691 31.58C221.231 29.46 221.671 27.82 222.011 26.66ZM237.235 44.03C235.915 44.03 234.705 43.87 233.605 43.55C232.505 43.21 231.605 42.72 230.905 42.08C229.625 40.94 228.725 39.7 228.205 38.36C227.705 37 227.455 35.27 227.455 33.17C227.455 32.73 227.515 32.32 227.635 31.94C227.775 31.54 227.955 31.1 228.175 30.62C228.235 30.48 228.325 30.26 228.445 29.96C228.585 29.64 228.675 29.35 228.715 29.09C229.095 28.39 229.735 27.72 230.635 27.08C231.555 26.44 232.545 25.93 233.605 25.55C234.665 25.15 235.595 24.95 236.395 24.95C240.255 24.95 243.015 26.27 244.675 28.91C245.615 30.45 246.085 32 246.085 33.56C246.085 35.58 245.715 37.35 244.975 38.87C244.255 40.39 243.255 41.57 241.975 42.41C241.175 42.89 240.355 43.28 239.515 43.58C238.675 43.88 237.915 44.03 237.235 44.03ZM230.575 35.39C230.555 36.49 230.785 37.4 231.265 38.12C231.765 38.82 232.545 39.59 233.605 40.43C234.405 40.73 234.965 40.93 235.285 41.03C235.605 41.13 235.955 41.18 236.335 41.18C237.635 41.18 238.785 40.91 239.785 40.37C240.785 39.83 241.555 39.09 242.095 38.15C242.655 37.21 242.935 36.16 242.935 35C242.935 33.48 242.765 32.28 242.425 31.4C242.085 30.52 241.475 29.73 240.595 29.03C240.135 28.65 239.545 28.37 238.825 28.19C238.125 28.01 237.375 27.92 236.575 27.92C234.655 27.92 233.165 28.6 232.105 29.96C231.065 31.3 230.555 33.11 230.575 35.39Z" fill="white"/>
</svg>
